<?xml version="1.0" standalone="no"?>
<!DOCTYPE svg PUBLIC "-//W3C//DTD SVG 20010904//EN"
 "http://www.w3.org/TR/2001/REC-SVG-20010904/DTD/svg10.dtd">
<svg version="1.0" xmlns="http://www.w3.org/2000/svg"
 width="86.000000pt" height="86.000000pt" viewBox="0 0 86.000000 86.000000"
 preserveAspectRatio="xMidYMid meet">
<metadata>
Created by potrace 1.11, written by Peter Selinger 2001-2013
</metadata>
<g transform="translate(0.000000,86.000000) scale(0.100000,-0.100000)"
fill="#000000" stroke="none">
<path d="M618 818 c-16 -18 -28 -36 -28 -40 0 -4 54 -61 120 -128 81 -81 126
-120 138 -118 13 3 -13 35 -100 123 -65 66 -118 122 -118 125 0 4 9 15 20 25
11 10 20 24 20 32 0 23 -24 14 -52 -19z"/>
<path d="M160 812 c0 -4 18 -26 40 -47 l40 -39 -115 -116 c-105 -106 -131
-140 -105 -140 5 0 66 57 136 126 l126 126 -48 49 c-44 45 -74 61 -74 41z"/>
<path d="M705 789 c-10 -31 16 -48 45 -29 12 7 12 13 4 27 -16 26 -41 28 -49
2z"/>
<path d="M111 736 c-9 -11 -8 -17 4 -30 20 -20 47 -9 43 18 -4 25 -30 32 -47
12z"/>
<path d="M550 711 c-5 -11 -20 -23 -32 -27 -21 -7 -33 -9 -73 -13 -16 -1 -215
-196 -215 -211 0 -19 45 -50 71 -50 19 0 42 14 74 44 45 43 46 44 75 29 59
-29 146 -17 177 24 17 22 -4 37 -24 17 -36 -36 -123 -35 -163 1 -17 15 -22 13
-70 -35 -36 -35 -59 -50 -73 -48 -32 4 -27 21 19 70 100 105 130 129 170 134
42 5 79 27 102 62 13 20 13 22 -6 22 -12 0 -26 -9 -32 -19z"/>
<path d="M270 656 c0 -16 46 -49 61 -44 14 5 -29 58 -47 58 -8 0 -14 -6 -14
-14z"/>
<path d="M757 543 c-8 -10 -25 -51 -35 -92 -11 -41 -27 -78 -36 -83 -22 -12
-21 -40 1 -36 23 4 59 70 67 122 4 22 13 50 21 62 18 28 4 51 -18 27z"/>
<path d="M95 490 c-4 -6 -2 -16 3 -23 9 -11 15 -32 26 -93 11 -58 44 -102 170
-228 75 -75 140 -136 144 -137 4 0 15 -2 25 -4 10 -2 28 6 40 18 12 12 27 23
32 23 6 1 15 2 22 3 6 0 19 9 29 18 9 10 22 18 28 19 6 0 19 2 29 2 23 3 41
50 29 77 -7 16 -6 24 4 31 7 5 16 21 20 37 5 24 -3 36 -72 108 -86 88 -114
109 -114 85 0 -9 36 -51 80 -95 44 -44 80 -85 80 -90 0 -4 -7 -14 -16 -21 -13
-12 -27 -2 -98 69 -54 54 -90 82 -101 79 -13 -2 10 -31 89 -112 58 -59 106
-112 106 -116 0 -4 -7 -13 -15 -20 -13 -11 -31 2 -119 88 -57 56 -106 102
-110 102 -22 0 5 -41 79 -115 47 -48 85 -90 85 -95 0 -5 -8 -14 -18 -19 -16
-8 -31 3 -93 65 -82 83 -109 103 -109 80 0 -8 32 -46 70 -86 38 -40 70 -75 70
-80 0 -4 -7 -13 -16 -21 -14 -11 -34 6 -159 132 -146 147 -152 156 -169 253
-5 26 -31 76 -41 76 -2 0 -7 -5 -10 -10z"/>
<path d="M106 264 c-10 -26 -7 -39 16 -64 12 -13 23 -32 23 -42 2 -18 32 -58
44 -56 20 2 31 -4 31 -16 0 -14 36 -32 53 -28 4 1 13 -9 19 -23 18 -39 78 -47
78 -10 0 9 -6 12 -15 9 -22 -9 -47 15 -39 38 4 15 1 18 -23 16 -42 -3 -54 8
-43 37 8 21 6 25 -8 25 -10 0 -23 -5 -30 -12 -9 -9 -15 -9 -27 3 -16 15 -11
49 6 49 4 0 6 6 3 14 -3 8 -12 12 -20 9 -20 -8 -44 15 -44 43 0 27 -15 32 -24
8z"/>
</g>
</svg>
